<svg width="22" height="22" viewBox="0 0 22 22" fill="none" xmlns="http://www.w3.org/2000/svg">
<g clip-path="url(#clip0_22_1499)">
<path d="M21.914 11.3387C22.0287 11.1276 22.0287 10.8722 21.914 10.661C19.8124 6.7915 15.713 4.16455 11 4.16455C6.28702 4.16455 2.18765 6.79154 0.0860049 10.661C-0.0286683 10.8722 -0.0286683 11.1276 0.0860049 11.3387C2.18769 15.2083 6.28695 17.8352 11 17.8352C15.713 17.8352 19.8123 15.2083 21.914 11.3387ZM11 16.243C8.10425 16.243 5.75683 13.8956 5.75683 10.9999C5.75683 8.1042 8.10425 5.75671 11 5.75671C13.8957 5.75671 16.2432 8.10417 16.2432 10.9999C16.2432 13.8956 13.8957 16.243 11 16.243Z" fill="#868686"/>
<path d="M11.0002 8.32812C10.7796 8.32812 10.5654 8.35505 10.3604 8.40541C10.5703 8.64842 10.6977 8.96487 10.6977 9.31122C10.6977 10.0769 10.0769 10.6977 9.31122 10.6977C8.96487 10.6977 8.64842 10.5704 8.40541 10.3604C8.35505 10.5654 8.32812 10.7796 8.32812 11.0002C8.32812 12.4759 9.52443 13.6722 11.0001 13.6722C12.4758 13.6722 13.6721 12.4758 13.6721 11.0002C13.6721 9.52447 12.4759 8.32812 11.0002 8.32812Z" fill="#868686"/>
</g>
<defs>
<clipPath id="clip0_22_1499">
<rect width="22" height="22" fill="white"/>
</clipPath>
</defs>
</svg>
